<svg xmlns="http://www.w3.org/2000/svg" xmlns:xlink="http://www.w3.org/1999/xlink" width="433" height="800" viewBox="0 0 433 800">
  <defs>
    <clipPath id="clip-Web_1280_5">
      <rect width="433" height="800"/>
    </clipPath>
  </defs>
  <g id="Web_1280_5" data-name="Web 1280 – 5" clip-path="url(#clip-Web_1280_5)">
    <g id="Repetição_de_grade_1" data-name="Repetição de grade 1" transform="translate(-8.703 57.151)" opacity="0.22">
      <g id="Retângulo_1458" data-name="Retângulo 1458" fill="none" stroke="#be75ff" stroke-width="1">
        <rect width="64" height="64" stroke="none"/>
        <rect x="0.5" y="0.5" width="63" height="63" fill="none"/>
      </g>
      <g transform="translate(0 64)">
        <g id="Retângulo_1458-2" data-name="Retângulo 1458" fill="none" stroke="#be75ff" stroke-width="1">
          <rect width="64" height="64" stroke="none"/>
          <rect x="0.5" y="0.5" width="63" height="63" fill="none"/>
        </g>
      </g>
      <g transform="translate(0 128)">
        <g id="Retângulo_1458-3" data-name="Retângulo 1458" fill="none" stroke="#be75ff" stroke-width="1">
          <rect width="64" height="64" stroke="none"/>
          <rect x="0.5" y="0.5" width="63" height="63" fill="none"/>
        </g>
      </g>
      <g transform="translate(0 192)">
        <g id="Retângulo_1458-4" data-name="Retângulo 1458" fill="none" stroke="#be75ff" stroke-width="1">
          <rect width="64" height="64" stroke="none"/>
          <rect x="0.5" y="0.5" width="63" height="63" fill="none"/>
        </g>
      </g>
      <g transform="translate(0 256)">
        <g id="Retângulo_1458-5" data-name="Retângulo 1458" fill="none" stroke="#be75ff" stroke-width="1">
          <rect width="64" height="64" stroke="none"/>
          <rect x="0.5" y="0.5" width="63" height="63" fill="none"/>
        </g>
      </g>
      <g transform="translate(0 320)">
        <g id="Retângulo_1458-6" data-name="Retângulo 1458" fill="none" stroke="#be75ff" stroke-width="1">
          <rect width="64" height="64" stroke="none"/>
          <rect x="0.5" y="0.5" width="63" height="63" fill="none"/>
        </g>
      </g>
      <g transform="translate(0 384)">
        <g id="Retângulo_1458-7" data-name="Retângulo 1458" fill="none" stroke="#be75ff" stroke-width="1">
          <rect width="64" height="64" stroke="none"/>
          <rect x="0.5" y="0.5" width="63" height="63" fill="none"/>
        </g>
      </g>
      <g transform="translate(0 448)">
        <g id="Retângulo_1458-8" data-name="Retângulo 1458" fill="none" stroke="#be75ff" stroke-width="1">
          <rect width="64" height="64" stroke="none"/>
          <rect x="0.5" y="0.5" width="63" height="63" fill="none"/>
        </g>
      </g>
      <g transform="translate(0 512)">
        <g id="Retângulo_1458-9" data-name="Retângulo 1458" fill="none" stroke="#be75ff" stroke-width="1">
          <rect width="64" height="64" stroke="none"/>
          <rect x="0.5" y="0.5" width="63" height="63" fill="none"/>
        </g>
      </g>
      <g transform="translate(0 576)">
        <g id="Retângulo_1458-10" data-name="Retângulo 1458" fill="none" stroke="#be75ff" stroke-width="1">
          <rect width="64" height="64" stroke="none"/>
          <rect x="0.5" y="0.5" width="63" height="63" fill="none"/>
        </g>
      </g>
      <g transform="translate(0 640)">
        <g id="Retângulo_1458-11" data-name="Retângulo 1458" fill="none" stroke="#be75ff" stroke-width="1">
          <rect width="64" height="64" stroke="none"/>
          <rect x="0.5" y="0.5" width="63" height="63" fill="none"/>
        </g>
      </g>
      <g transform="translate(0 704)">
        <g id="Retângulo_1458-12" data-name="Retângulo 1458" fill="none" stroke="#be75ff" stroke-width="1">
          <rect width="64" height="64" stroke="none"/>
          <rect x="0.5" y="0.5" width="63" height="63" fill="none"/>
        </g>
      </g>
      <g transform="translate(0 768)">
        <g id="Retângulo_1458-13" data-name="Retângulo 1458" fill="none" stroke="#be75ff" stroke-width="1">
          <rect width="64" height="64" stroke="none"/>
          <rect x="0.5" y="0.5" width="63" height="63" fill="none"/>
        </g>
      </g>
      <g transform="translate(0 832)">
        <g id="Retângulo_1458-14" data-name="Retângulo 1458" fill="none" stroke="#be75ff" stroke-width="1">
          <rect width="64" height="64" stroke="none"/>
          <rect x="0.5" y="0.5" width="63" height="63" fill="none"/>
        </g>
      </g>
    </g>
  </g>
</svg>
