<svg xmlns="http://www.w3.org/2000/svg" xmlns:xlink="http://www.w3.org/1999/xlink" width="1280" height="800" viewBox="0 0 1280 800">
  <defs>
    <clipPath id="clip-Web_1280_3">
      <rect width="1280" height="800"/>
    </clipPath>
  </defs>
  <g id="Web_1280_3" data-name="Web 1280 – 3" clip-path="url(#clip-Web_1280_3)">
    <g id="Grupo_48" data-name="Grupo 48" transform="translate(0 27)">
      <g id="Grupo_26" data-name="Grupo 26">
        <path id="Polígono_8" data-name="Polígono 8" d="M3.5,0,7,6H0Z" transform="translate(149.369 397.39) rotate(-14)" fill="#fff" opacity="0.5"/>
        <path id="Polígono_11" data-name="Polígono 11" d="M3.5,0,7,6H0Z" transform="translate(309.369 461.39) rotate(-14)" fill="#fff" opacity="0.5"/>
        <path id="Polígono_9" data-name="Polígono 9" d="M3.5,0,7,6H0Z" transform="translate(47.369 485.39) rotate(-14)" fill="#fff" opacity="0.5"/>
        <path id="Polígono_13" data-name="Polígono 13" d="M3.5,0,7,6H0Z" transform="translate(305.369 214.39) rotate(-14)" fill="#fff" opacity="0.5"/>
        <path id="Polígono_14" data-name="Polígono 14" d="M3.5,0,7,6H0Z" transform="translate(65.369 21.39) rotate(-14)" fill="#fff" opacity="0.5"/>
        <path id="Polígono_12" data-name="Polígono 12" d="M3.5,0,7,6H0Z" transform="translate(43.369 206.39) rotate(-14)" fill="#fff" opacity="0.5"/>
        <path id="Polígono_15" data-name="Polígono 15" d="M3.5,0,7,6H0Z" transform="translate(108.369 72.39) rotate(-14)" fill="#fff" opacity="0.5"/>
        <path id="Polígono_10" data-name="Polígono 10" d="M3.5,0,7,6H0Z" transform="translate(149.369 549.39) rotate(-14)" fill="#fff" opacity="0.5"/>
      </g>
      <g id="Grupo_26-2" data-name="Grupo 26" transform="translate(453 99)">
        <path id="Polígono_8-2" data-name="Polígono 8" d="M3.5,0,7,6H0Z" transform="translate(149.369 397.39) rotate(-14)" fill="#fff" opacity="0.5"/>
        <path id="Polígono_11-2" data-name="Polígono 11" d="M3.5,0,7,6H0Z" transform="translate(309.369 461.39) rotate(-14)" fill="#fff" opacity="0.5"/>
        <path id="Polígono_9-2" data-name="Polígono 9" d="M3.5,0,7,6H0Z" transform="translate(47.369 485.39) rotate(-14)" fill="#fff" opacity="0.5"/>
        <path id="Polígono_13-2" data-name="Polígono 13" d="M3.5,0,7,6H0Z" transform="translate(305.369 214.39) rotate(-14)" fill="#fff" opacity="0.5"/>
        <path id="Polígono_14-2" data-name="Polígono 14" d="M3.5,0,7,6H0Z" transform="translate(65.369 21.39) rotate(-14)" fill="#fff" opacity="0.5"/>
        <path id="Polígono_12-2" data-name="Polígono 12" d="M3.5,0,7,6H0Z" transform="translate(43.369 206.39) rotate(-14)" fill="#fff" opacity="0.5"/>
        <path id="Polígono_15-2" data-name="Polígono 15" d="M3.5,0,7,6H0Z" transform="translate(108.369 72.39) rotate(-14)" fill="#fff" opacity="0.5"/>
        <path id="Polígono_10-2" data-name="Polígono 10" d="M3.5,0,7,6H0Z" transform="translate(149.369 549.39) rotate(-14)" fill="#fff" opacity="0.5"/>
      </g>
      <g id="Grupo_45" data-name="Grupo 45" transform="translate(902 205)">
        <path id="Polígono_8-3" data-name="Polígono 8" d="M3.5,0,7,6H0Z" transform="translate(149.369 397.39) rotate(-14)" fill="#fff" opacity="0.5"/>
        <path id="Polígono_11-3" data-name="Polígono 11" d="M3.5,0,7,6H0Z" transform="translate(309.369 461.39) rotate(-14)" fill="#fff" opacity="0.5"/>
        <path id="Polígono_9-3" data-name="Polígono 9" d="M3.5,0,7,6H0Z" transform="translate(47.369 485.39) rotate(-14)" fill="#fff" opacity="0.5"/>
        <path id="Polígono_13-3" data-name="Polígono 13" d="M3.5,0,7,6H0Z" transform="translate(305.369 214.39) rotate(-14)" fill="#fff" opacity="0.5"/>
        <path id="Polígono_14-3" data-name="Polígono 14" d="M3.5,0,7,6H0Z" transform="translate(65.369 21.39) rotate(-14)" fill="#fff" opacity="0.5"/>
        <path id="Polígono_12-3" data-name="Polígono 12" d="M3.5,0,7,6H0Z" transform="translate(43.369 206.39) rotate(-14)" fill="#fff" opacity="0.5"/>
        <path id="Polígono_15-3" data-name="Polígono 15" d="M3.5,0,7,6H0Z" transform="translate(108.369 72.39) rotate(-14)" fill="#fff" opacity="0.5"/>
        <path id="Polígono_10-3" data-name="Polígono 10" d="M3.5,0,7,6H0Z" transform="translate(149.369 549.39) rotate(-14)" fill="#fff" opacity="0.5"/>
      </g>
    </g>
  </g>
</svg>
