<svg xmlns="http://www.w3.org/2000/svg" width="274.244" height="535.515" viewBox="0 0 274.244 535.515">
  <g id="Grupo_26" data-name="Grupo 26" transform="translate(-43.369 -19.697)">
    <path id="Polígono_8" data-name="Polígono 8" d="M3.5,0,7,6H0Z" transform="translate(149.369 397.39) rotate(-14)" fill="#fff" opacity="0.5"/>
    <path id="Polígono_11" data-name="Polígono 11" d="M3.5,0,7,6H0Z" transform="translate(309.369 461.39) rotate(-14)" fill="#fff" opacity="0.5"/>
    <path id="Polígono_9" data-name="Polígono 9" d="M3.5,0,7,6H0Z" transform="translate(47.369 485.39) rotate(-14)" fill="#fff" opacity="0.5"/>
    <path id="Polígono_13" data-name="Polígono 13" d="M3.5,0,7,6H0Z" transform="translate(305.369 214.39) rotate(-14)" fill="#fff" opacity="0.5"/>
    <path id="Polígono_14" data-name="Polígono 14" d="M3.5,0,7,6H0Z" transform="translate(65.369 21.39) rotate(-14)" fill="#fff" opacity="0.5"/>
    <path id="Polígono_12" data-name="Polígono 12" d="M3.5,0,7,6H0Z" transform="translate(43.369 206.39) rotate(-14)" fill="#fff" opacity="0.5"/>
    <path id="Polígono_15" data-name="Polígono 15" d="M3.5,0,7,6H0Z" transform="translate(108.369 72.39) rotate(-14)" fill="#fff" opacity="0.5"/>
    <path id="Polígono_10" data-name="Polígono 10" d="M3.5,0,7,6H0Z" transform="translate(149.369 549.39) rotate(-14)" fill="#fff" opacity="0.5"/>
  </g>
</svg>
